<?xml version="1.0" encoding="UTF-8"?>
<svg id="Layer_1" data-name="Layer 1" xmlns="http://www.w3.org/2000/svg" viewBox="0 0 2369.83 188">
  <defs>
    <style>
      .cls-1 {
        fill: #c90909;
      }

      .cls-2 {
        fill: #fff;
      }
    </style>
  </defs>
  <g>
    <path class="cls-1" d="M830.77,135.42V.12h40.81v129.34c0,10.08,4.12,13.77,10.08,13.77s8.93-4.16,14.89-13.09L979.59.12h48.36l-99.04,151.57c-15.36,25.02-33.04,33.73-53.68,33.73-28.41,0-44.46-17.89-44.46-49.99h0Z"/>
    <path class="cls-1" d="M1084.47.12v183.45h-40.81V.12h40.81Z"/>
    <path class="cls-1" d="M1113.78.12h78.44c60.08,0,96.3,36,96.3,91.7s-36.22,91.75-96.3,91.75h-78.44V.12h0ZM1247.71,91.82c0-32.53-20.17-53.86-55.49-53.86h-37.63v107.75h37.63c35.32,0,55.49-21.33,55.49-53.9Z"/>
    <path class="cls-1" d="M1464.97,183.57h-97.03c-39.65,0-58.45-18.58-58.45-58.23V58.35c0-39.18,19.22-58.23,58.45-58.23h97.03v37.85h-95.18c-14.89,0-20.17,5.28-20.17,20.38v14.46h110.76v38.06h-110.76v14.46c0,15.11,5.28,20.38,20.17,20.38h95.18v37.85Z"/>
    <path class="cls-1" d="M1480.68,91.82c0-54.54,40.38-93.98,96.3-93.98s96.34,39.44,96.34,93.98-40.38,94.02-96.34,94.02-96.3-39.44-96.3-94.02ZM1632.5,91.82c0-33.21-22.7-56.17-55.53-56.17s-55.49,22.96-55.49,56.17,22.49,56.22,55.49,56.22,55.53-22.96,55.53-56.22Z"/>
    <path class="cls-1" d="M1738.97,72.81h59.13c12.87,0,21.59-5.96,21.59-17.64,0-11.03-8.71-17.21-21.59-17.21h-106.38V.12h108.01c36.69,0,60.76,21.54,60.76,55.74s-24.07,55.01-60.76,55.01h-50.68c-10.77,0-16.52,5.75-16.52,16.26v56.43h-40.81v-63.51c0-30.51,16.52-47.25,47.25-47.25h0Z"/>
    <path class="cls-1" d="M1969.11-1.73c28.41,0,44.46,17.89,44.46,50.47v134.83h-40.81v-46.3h-79.09l-28.92,46.3h-48.36l99.04-151.57c15.36-25.02,33.04-33.73,53.68-33.73h0ZM1972.76,99.2v-48.19c0-10.08-4.12-13.73-10.08-13.73s-9.18,4.12-14.89,12.83l-30.51,49.09h55.49Z"/>
    <path class="cls-1" d="M2212.3,145.72h96.98c10.34,0,16.31-4.12,16.31-12.83,0-8.02-5.54-11.93-15.15-13.09l-227.01-20.86c-35.79-2.75-50.25-22.92-50.25-48.62,0-31.15,20.21-50.21,54.58-50.21h98.83v37.85h-92.86c-10.08,0-16.05,4.12-16.05,12.83,0,8.02,5.06,11.93,15.15,13.09l226.79,20.86c36,2.96,50.21,22.92,50.21,48.62,0,31.15-20.17,50.21-54.37,50.21h-103.16s0-37.85,0-37.85ZM2036.61,145.72h154.1c-1.59,24.55-15.79,37.85-40.12,37.85h-113.98s0-37.85,0-37.85ZM2252.63.12h109.64v37.85h-149.98c1.8-24.55,16.05-37.85,40.34-37.85h0Z"/>
  </g>
  <path class="cls-2" d="M720.05.26h-195.55c-50.61,0-91.78,41.17-91.78,91.78s41.17,91.78,91.78,91.78h153.39v-55.13h44.76c34.13-1.38,61.48-29.75,61.48-64.22S755.38.26,720.05.26ZM603.56,55.68h-79.49c-20.12,0-36.48,16.36-36.48,36.48s16.36,36.48,36.48,36.48h42.61v-18.09h-42.61c-10.14,0-18.39-8.25-18.39-18.39s8.25-18.39,18.39-18.39h79.49v91.64h-79.49c-40.39,0-73.25-32.86-73.25-73.25s32.86-73.25,73.25-73.25h79.49v36.77h0ZM718.69,110.55h-60.04v54.87h-36.99v-91.64h97.04c5,0,9.05-4.05,9.05-9.05s-4.05-9.05-9.05-9.05h-97.04V18.78l97.04.13c25.2.13,45.69,20.63,45.69,45.82s-20.5,45.82-45.69,45.82ZM700.64,168.64h-5.8v-3.27h15.01v3.27h-5.82v15.17h-3.4v-15.17ZM713.3,165.38h3.56l5.43,9.09,5.37-9.09h3.56v18.44h-3.37v-12.99l-4.21,7.19h-2.77l-4.19-7.03v12.83h-3.37v-18.44ZM415.88,47.71v136.11h-52.61v-115.45c0-2.81-3.42-4.19-5.37-2.17l-93.84,104.14c-12.63,13.63-33.49,19.03-51.16,12.76-18.83-6.68-31.12-24.2-31.12-44.02v-71.04c0-2.81-3.42-4.19-5.37-2.17l-106.11,117.94H0L152.42,14.37C160.43,5.49,173.87.25,187.03.25c26.2,0,47.36,21.25,47.36,47.45v69.89c0,2.81,3.42,4.19,5.37,2.16L334.64,14.51c14.37-14.85,36.99-18.61,55.67-8.9,15.82,8.22,25.57,24.51,25.57,42.09Z"/>
</svg>