<svg width="7" height="14" viewBox="0 0 7 14" fill="none" xmlns="http://www.w3.org/2000/svg">
    <path
        d="M0.292931 12.2929C0.0976688 12.4882 0.0976688 12.8048 0.292931 13C0.488193 13.1953 0.804776 13.1953 1.00004 13L0.292931 12.2929ZM0.646484 12.6465L1.00004 13L7.00004 7.00004L6.64648 6.64648L6.29293 6.29293L0.292931 12.2929L0.646484 12.6465Z"
        fill="white" />
    <path
        d="M1.00004 0.999962C0.804775 0.8047 0.488193 0.8047 0.292931 0.999962C0.0976685 1.19522 0.0976685 1.51181 0.292931 1.70707L1.00004 0.999962ZM6.64648 7.35352L7.00004 6.99996L1.00004 0.999962L0.646484 1.35352L0.292931 1.70707L6.29293 7.70707L6.64648 7.35352Z"
        fill="white" />
</svg>