<svg xmlns="http://www.w3.org/2000/svg" width="20" height="20" fill="none">
    <path fill="#9FA0A4"
        d="M9.16667 5.00024c.22101 0 .43297.0878.58925.24408.15628.15628.24408.36824.24408.58926 0 .22101-.0878.43297-.24408.58925-.15628.15628-.36824.24408-.58925.24408h-5v9.16669h9.16663v-5c0-.221.0878-.433.2441-.5893.1563-.1563.3683-.2441.5893-.2441.221 0 .4329.0878.5892.2441.1563.1563.2441.3683.2441.5893v5c0 .442-.1756.8659-.4882 1.1785-.3125.3125-.7364.4881-1.1785.4881H4.16667c-.44203 0-.86595-.1756-1.17851-.4881-.31257-.3126-.48816-.7365-.48816-1.1785V6.66691c0-.44203.17559-.86595.48816-1.17851.31256-.31256.73648-.48816 1.17851-.48816h5Zm7.50003-2.5c.221 0 .4329.0878.5892.24408.1563.15628.2441.36824.2441.58926v4.16666c0 .22102-.0878.43298-.2441.58926-.1563.15628-.3682.24408-.5892.24408-.221 0-.433-.0878-.5893-.24408-.1563-.15628-.2441-.36824-.2441-.58926v-2.155L8.9225 12.2561c-.15717.1518-.36767.2358-.58617.2339-.21849-.0019-.42751-.0896-.58201-.2441-.15451-.1545-.24215-.3635-.24405-.582-.0019-.2185.0821-.429.2339-.5862L14.655 4.16691H12.5c-.221 0-.433-.0878-.5893-.24408-.1562-.15628-.244-.36824-.244-.58925 0-.22102.0878-.43298.244-.58926.1563-.15628.3683-.24408.5893-.24408h4.1667Z" />
</svg>