<svg xmlns="http://www.w3.org/2000/svg" width="18" height="18">
    <path
        d="M5.89567 10.021h.77083V8.29187h1c.21841 0 .40148-.07388.54921-.22163.14775-.14773.22163-.3308.22163-.5492v-1c0-.21841-.07388-.40148-.22163-.54921-.14773-.14775-.3308-.22163-.54921-.22163H5.89567v4.2708Zm.77083-2.49996v-1h1v1h-1ZM9.354 10.021h1.75c.2083 0 .3889-.07384.5417-.22159.1527-.14774.2291-.3308.2291-.54921V6.52104c0-.21841-.0764-.40148-.2291-.54921-.1528-.14775-.3334-.22163-.5417-.22163h-1.75v4.2708Zm.7708-.7708V6.52104h.9792V9.2502h-.9792Zm2.7709.7708h.7708V8.29187h1.0417v-.77083h-1.0417v-1h1.0417V5.7502h-1.8125v4.2708Zm-8.4792 4.8125c-.33333 0-.625-.125-.875-.375s-.375-.5416-.375-.875V1.91687c0-.33333.125-.625.375-.875s.54167-.375.875-.375h11.6667c.3333 0 .625.125.875.375s.375.54167.375.875V13.5835c0 .3334-.125.625-.375.875s-.5417.375-.875.375H4.4165Zm0-1.25h11.6667V1.91687H4.4165V13.5835Zm-2.5 3.75c-.33333 0-.625-.125-.875-.375-.249996-.25-.374996-.5416-.374996-.875V3.16687H1.9165V16.0835h12.9167v1.25H1.9165Z" />
</svg>