<svg xmlns="http://www.w3.org/2000/svg" width="56" height="28" viewBox="0 0 56 28"><g fill="none" fill-rule="evenodd" transform="translate(-12 -26)"><rect width="80" height="80" fill="#000" opacity="0"/><path fill="#0033A0" d="M20.810748,44.6199236 L19.1034496,49.99995 L24.3415995,49.99995 L26.0488979,44.6199236 L20.810748,44.6199236 Z M26.3286355,29.99995 C25.8205952,29.99995 25.3345439,30.3645841 25.1756498,30.8649761 L23.2624201,36.8939633 L28.50057,36.8939633 L29.0145378,35.274047 C29.1003903,35.0036786 29.3631104,34.8065429 29.6378766,34.8065429 L36.5183141,34.8065429 L38.0435823,29.99995 L26.3286355,29.99995 Z M32.4266489,42.3990398 L18.9470412,42.3990398 L19.1076562,42.6038239 C19.586824,43.2143518 20.3243142,43.5564234 21.1004285,43.5564234 L32.0593379,43.5564234 L32.4266489,42.3990398 Z M33.1314425,40.1783473 L15.9733706,40.1783473 L16.1339856,40.3829401 C16.6131534,40.993468 17.3506436,41.3355396 18.1267579,41.3355396 L32.7641314,41.3355396 L33.1314425,40.1783473 Z M33.8360449,37.9574635 L12.9997,37.9574635 L13.1603149,38.1620564 C13.6394828,38.7725843 14.376973,39.1146558 15.1530873,39.1146558 L33.468925,39.1146558 L33.8360449,37.9574635 Z M51.867556,29.99995 L54.6123503,37.1536241 L62.0176545,29.99995 L67.2003539,29.99995 L60.8537699,49.99995 L55.61562,49.99995 L59.2485767,38.5515475 L51.987826,45.6065582 L49.3472401,38.5515475 L45.7142835,49.99995 L40.6971703,49.99995 L46.7693705,30.8649761 C46.9282646,30.3645841 47.414316,29.99995 47.9223563,29.99995 L51.867556,29.99995 Z M45.1521312,29.99995 L38.8053559,49.99995 L33.5672061,49.99995 L39.6394063,30.8649761 C39.7983004,30.3645841 40.2843517,29.99995 40.792392,29.99995 L45.1521312,29.99995 Z"/></g></svg>