<?xml version="1.0" encoding="UTF-8"?>
<svg id="Layer_1" data-name="Layer 1" xmlns="http://www.w3.org/2000/svg" viewBox="0 0 2713.59 188">
  <defs>
    <style>
      .cls-1 {
        fill: #c90909;
      }

      .cls-2 {
        fill: #fff;
      }
    </style>
  </defs>
  <g>
    <path class="cls-1" d="M1001.55,39.82h-67.41v146.06h-41.15V39.82h-66.73V1.85h175.29v37.97Z"/>
    <path class="cls-1" d="M1017.09,147.91h54.07V39.82h-54.07V1.85h149.08v37.97h-54.07v108.1h54.07v37.97h-149.08v-37.97h0Z"/>
    <path class="cls-1" d="M1236.59,0c25.53,0,45.33,14.03,51.79,50.63l11.02,51.31c2.54,13.99,4.13,29.88,5.08,39.09.9,5.51,2.07,8.05,5.29,8.05s4.13-2.54,5.04-8.05c.9-9.21,2.54-25.1,5.08-39.09l11.02-51.31c6.46-36.59,26.22-50.63,51.74-50.63,31.3,0,49.25,22.08,49.25,56.82v129.06h-40.94V53.17c0-9.43-3.7-15.2-10.59-15.2-5.98,0-10.12,3.66-12.44,14.72l-24.84,133.19h-66.94l-24.58-133.19c-2.54-11.06-6.67-14.72-12.66-14.72-6.93,0-10.59,5.77-10.59,15.2v132.72h-40.94V56.82c0-34.74,18.38-56.82,49.2-56.82h0Z"/>
    <path class="cls-1" d="M1453.13,147.91h54.07V39.82h-54.07V1.85h149.03v37.97h-54.03v108.1h54.03v37.97h-149.03v-37.97Z"/>
    <path class="cls-1" d="M1625.97,1.85h44.64c26.69,0,41.84,11.75,51.27,39.56l38.87,99.61c1.85,4.35,3.92,6.2,6.67,6.2s5.29-2.07,5.29-7.1V1.85h39.35v184.03h-77.53l-48.52-131.34c-4.13-9-8.31-11.75-16.1-11.75h-4.61v143.09h-39.35V1.85Z"/>
    <path class="cls-1" d="M1834.02,93.89c0-54.33,37.97-92.04,96.6-92.04h75.68v37.97h-77.06c-33.58,0-54.28,22.77-54.28,54.07s20.71,54.03,54.28,54.03h36.12v-34.96h-49.89v-38.18h90.83v111.11h-75.68c-58.63,0-96.6-37.71-96.6-91.99h0Z"/>
    <path class="cls-1" d="M2081.9,74.78h59.32c12.91,0,21.65-5.98,21.65-17.74,0-11.02-8.74-17.22-21.65-17.22h-106.72V1.85h108.35c36.81,0,60.96,21.61,60.96,55.92s-24.15,55.19-60.96,55.19h-50.84c-10.81,0-16.57,5.77-16.57,16.32v56.61h-40.94v-63.71c0-30.61,16.57-47.4,47.4-47.4h0Z"/>
    <path class="cls-1" d="M2311.6,0c28.5,0,44.6,17.95,44.6,50.63v135.26h-40.94v-46.45h-79.34l-29.01,46.45h-48.52l99.36-152.05C2273.16,8.74,2290.9,0,2311.6,0h0ZM2315.26,101.21v-48.3c0-10.12-4.13-13.78-10.12-13.78s-9.21,4.13-14.94,12.87l-30.61,49.2h55.66Z"/>
    <path class="cls-1" d="M2555.56,147.91h97.29c10.37,0,16.36-4.13,16.36-12.87,0-8.05-5.55-11.97-15.2-13.13l-227.73-20.92c-35.9-2.76-50.41-22.99-50.41-48.77,0-31.25,20.28-50.37,54.76-50.37h99.14v37.97h-93.16c-10.12,0-16.1,4.13-16.1,12.87,0,8.05,5.08,11.97,15.2,13.13l227.51,20.92c36.12,2.97,50.37,22.99,50.37,48.77,0,31.25-20.23,50.37-54.54,50.37h-103.49v-37.97h0ZM2379.32,147.91h154.59c-1.59,24.62-15.84,37.97-40.25,37.97h-114.34v-37.97ZM2596.03,1.85h109.99v37.97h-150.45c1.85-24.62,16.1-37.97,40.47-37.97Z"/>
  </g>
  <path class="cls-2" d="M722.33,1.97h-196.17c-50.77,0-92.07,41.3-92.07,92.07s41.3,92.07,92.07,92.07h153.88v-55.3h44.9c34.24-1.38,61.67-29.85,61.67-64.42S757.77,1.97,722.33,1.97ZM605.47,57.57h-79.74c-20.18,0-36.6,16.42-36.6,36.6s16.42,36.6,36.6,36.6h42.75v-18.15h-42.75c-10.17,0-18.45-8.27-18.45-18.45s8.27-18.45,18.45-18.45h79.74v91.93h-79.74c-40.52,0-73.49-32.97-73.49-73.49s32.97-73.49,73.48-73.49h79.75v36.89ZM720.97,112.61h-60.23v55.04h-37.11v-91.93h97.34c5.01,0,9.08-4.06,9.08-9.08s-4.06-9.08-9.08-9.08h-97.34V20.55l97.34.13c25.28.13,45.84,20.69,45.84,45.97s-20.56,45.97-45.84,45.97ZM702.87,170.89h-5.81v-3.28h15.06v3.28h-5.84v15.22h-3.41v-15.22ZM715.56,167.61h3.57l5.44,9.12,5.39-9.12h3.57v18.5h-3.38v-13.03l-4.23,7.21h-2.77l-4.2-7.06v12.87h-3.38v-18.5ZM417.2,49.57v136.55h-52.78v-115.81c0-2.82-3.43-4.2-5.38-2.18l-94.14,104.47c-12.67,13.67-33.59,19.09-51.32,12.8-18.89-6.7-31.22-24.28-31.22-44.16v-71.26c0-2.82-3.43-4.2-5.38-2.18l-106.44,118.32H0L152.91,16.12c8.03-8.9,21.51-14.16,34.71-14.16,26.28,0,47.51,21.31,47.51,47.6v70.11c0,2.82,3.44,4.2,5.39,2.17l95.19-105.56c14.41-14.9,37.11-18.67,55.84-8.93,15.87,8.25,25.65,24.58,25.65,42.22Z"/>
</svg>